<svg width="35" height="35" viewBox="0 0 35 35" fill="none" xmlns="http://www.w3.org/2000/svg">
<path d="M13.1251 32.0834C13.9305 32.0834 14.5834 31.4304 14.5834 30.625C14.5834 29.8196 13.9305 29.1667 13.1251 29.1667C12.3197 29.1667 11.6667 29.8196 11.6667 30.625C11.6667 31.4304 12.3197 32.0834 13.1251 32.0834Z" stroke="url(#paint0_linear_214898_3719)" stroke-width="2" stroke-linecap="round" stroke-linejoin="round"/>
<path d="M29.1666 32.0834C29.972 32.0834 30.6249 31.4304 30.6249 30.625C30.6249 29.8196 29.972 29.1667 29.1666 29.1667C28.3612 29.1667 27.7083 29.8196 27.7083 30.625C27.7083 31.4304 28.3612 32.0834 29.1666 32.0834Z" stroke="url(#paint1_linear_214898_3719)" stroke-width="2" stroke-linecap="round" stroke-linejoin="round"/>
<path d="M1.45825 1.45831H7.29158L11.1999 20.9854C11.3333 21.6568 11.6985 22.2599 12.2318 22.6892C12.765 23.1184 13.4322 23.3464 14.1166 23.3333H28.2916C28.976 23.3464 29.6432 23.1184 30.1764 22.6892C30.7096 22.2599 31.0749 21.6568 31.2082 20.9854L33.5416 8.74998H8.74992" stroke="url(#paint2_linear_214898_3719)" stroke-width="2" stroke-linecap="round" stroke-linejoin="round"/>
<defs>
<linearGradient id="paint0_linear_214898_3719" x1="14.1313" y1="29.5604" x2="12.2209" y2="31.7625" gradientUnits="userSpaceOnUse">
<stop stop-color="#EB3850"/>
<stop offset="1" stop-color="#CB162E"/>
</linearGradient>
<linearGradient id="paint1_linear_214898_3719" x1="30.1728" y1="29.5604" x2="28.2624" y2="31.7625" gradientUnits="userSpaceOnUse">
<stop stop-color="#EB3850"/>
<stop offset="1" stop-color="#CB162E"/>
</linearGradient>
<linearGradient id="paint2_linear_214898_3719" x1="28.5687" y1="4.41151" x2="15.8843" y2="25.8551" gradientUnits="userSpaceOnUse">
<stop stop-color="#EB3850"/>
<stop offset="1" stop-color="#CB162E"/>
</linearGradient>
</defs>
</svg>
