<svg width="19" height="17" viewBox="0 0 19 17" fill="none" xmlns="http://www.w3.org/2000/svg">
<path d="M5.38286 2.59112C5.14286 2.59112 4.95429 2.62541 4.81714 2.69398C4.69143 2.76255 4.6 2.91684 4.54286 3.15684C4.49714 3.39684 4.47429 3.7797 4.47429 4.30541V5.98541C4.47429 6.4197 4.40571 6.79684 4.26857 7.11684C4.14286 7.42541 3.99429 7.67684 3.82286 7.87112C3.65143 8.06541 3.49143 8.21398 3.34286 8.31684C3.46857 8.40827 3.61714 8.55112 3.78857 8.74541C3.97143 8.92827 4.13143 9.15684 4.26857 9.43112C4.40571 9.69398 4.47429 9.99112 4.47429 10.3226V12.3797C4.47429 12.894 4.49714 13.2711 4.54286 13.5111C4.6 13.7511 4.69143 13.9054 4.81714 13.974C4.95429 14.0426 5.14286 14.0768 5.38286 14.0768H6.01714V16.1683H4.66286C4.34286 16.1683 4.02286 16.1626 3.70286 16.1511C3.39429 16.1397 3.10857 16.0768 2.84571 15.9626C2.58286 15.8597 2.37143 15.6597 2.21143 15.3626C2.06286 15.0768 1.98857 14.6597 1.98857 14.1111V11.2826C1.98857 10.9397 1.93714 10.6197 1.83429 10.3226C1.73143 10.014 1.57714 9.76255 1.37143 9.56827C1.16571 9.37398 0.908571 9.27684 0.6 9.27684V7.28827C0.908571 7.27684 1.16571 7.1797 1.37143 6.99684C1.57714 6.80255 1.73143 6.55684 1.83429 6.2597C1.93714 5.95112 1.98857 5.62541 1.98857 5.28255V2.57398C1.98857 2.02541 2.06286 1.60827 2.21143 1.32255C2.36 1.03684 2.56 0.836839 2.81143 0.722553C3.07429 0.608267 3.36571 0.54541 3.68571 0.533981C4.00571 0.511124 4.33143 0.499696 4.66286 0.499696H6.01714V2.59112H5.38286ZM18.1639 8.47112C18.1639 9.63684 18.0211 10.7283 17.7354 11.7454C17.4611 12.7626 17.1068 13.6654 16.6725 14.454C16.2382 15.254 15.7754 15.9111 15.2839 16.4254L13.3125 15.5168C13.7582 15.0026 14.1582 14.3968 14.5125 13.6997C14.8668 13.014 15.1468 12.2368 15.3525 11.3683C15.5582 10.4883 15.6611 9.52255 15.6611 8.47112C15.6611 7.4197 15.5582 6.4597 15.3525 5.59112C15.1468 4.71112 14.8668 3.92827 14.5125 3.24255C14.1582 2.54541 13.7582 1.94541 13.3125 1.44255L15.2839 0.516838C15.7754 1.03112 16.2382 1.68827 16.6725 2.48827C17.1068 3.28827 17.4611 4.19684 17.7354 5.21398C18.0211 6.2197 18.1639 7.30541 18.1639 8.47112Z" fill="#E51D37"/>
</svg>
